<?xml version="1.0" standalone="no"?>
<!DOCTYPE svg PUBLIC "-//W3C//DTD SVG 20010904//EN"
 "http://www.w3.org/TR/2001/REC-SVG-20010904/DTD/svg10.dtd">
<svg version="1.0" xmlns="http://www.w3.org/2000/svg"
 width="1000.000000pt" height="1000.000000pt" viewBox="0 0 1000.000000 1000.000000"
 preserveAspectRatio="xMidYMid meet">
<metadata>
Created by potrace 1.14, written by Peter Selinger 2001-2017
</metadata>
<g transform="translate(0.000000,1000.000000) scale(0.100000,-0.100000)"
fill="#000000" stroke="none">
<path d="M5055 9359 c-855 -40 -1543 -319 -2035 -825 -320 -329 -502 -688
-581 -1149 -27 -153 -37 -512 -20 -677 32 -305 127 -589 274 -816 187 -289
521 -551 1093 -857 216 -115 495 -245 891 -416 513 -220 809 -372 1078 -551
395 -264 658 -546 776 -831 64 -153 74 -213 74 -427 0 -149 -4 -215 -18 -280
-61 -289 -184 -511 -393 -709 -414 -392 -1061 -550 -1900 -465 -329 33 -606
103 -881 221 -83 35 -85 37 -170 145 l-86 110 -73 716 c-40 395 -74 718 -74
720 0 1 -167 2 -370 2 l-370 0 2 -1101 3 -1101 85 -34 c478 -195 1073 -316
1745 -355 251 -15 788 -6 978 15 521 59 900 163 1292 356 533 262 933 643
1160 1105 146 298 212 576 222 941 8 289 -18 499 -89 722 -226 709 -817 1175
-2148 1690 -546 211 -1139 507 -1424 710 -101 72 -233 197 -297 282 -99 131
-174 307 -206 485 -20 109 -22 382 -4 500 28 181 72 318 147 465 186 360 529
615 974 724 179 43 333 59 570 59 411 -1 749 -71 1028 -213 89 -45 104 -57
186 -151 l90 -102 93 -586 c51 -322 95 -592 98 -599 3 -10 74 -12 327 -10
l323 3 0 969 0 968 -95 30 c-475 146 -965 247 -1420 293 -140 14 -591 36 -665
33 -16 0 -102 -4 -190 -9z"/>
</g>
</svg>
